<?xml version="1.0" encoding="UTF-8"?>
<svg xmlns="http://www.w3.org/2000/svg" xmlns:xlink="http://www.w3.org/1999/xlink" width="38px" height="38px" viewBox="0 0 38 38" version="1.1">
<g id="surface1">
<path style=" stroke:none;fill-rule:nonzero;fill:rgb(99.607843%,99.607843%,99.607843%);fill-opacity:1;" d="M 0.167969 13.847656 C 0.167969 9.234375 0.167969 4.699219 0.167969 0.167969 C 12.835938 0.167969 25.503906 0.167969 38.167969 0.167969 C 38.167969 12.835938 38.167969 25.503906 38.167969 38.167969 C 25.503906 38.167969 12.835938 38.167969 0.167969 38.167969 C 0.167969 30.089844 0.167969 22.011719 0.167969 13.847656 M 35.285156 21.871094 C 35.285156 17.679688 35.273438 13.488281 35.289062 9.296875 C 35.292969 8.367188 34.996094 7.613281 34.335938 6.960938 C 32.53125 5.183594 30.734375 3.402344 28.964844 1.589844 C 28.269531 0.871094 27.46875 0.570312 26.484375 0.574219 C 19.816406 0.585938 13.148438 0.574219 6.480469 0.582031 C 4.242188 0.585938 3.054688 1.789062 3.054688 4.023438 C 3.054688 14.121094 3.054688 24.222656 3.054688 34.320312 C 3.054688 36.546875 4.25 37.753906 6.488281 37.753906 C 14.957031 37.761719 23.425781 37.765625 31.894531 37.753906 C 34.082031 37.753906 35.28125 36.535156 35.28125 34.363281 C 35.285156 30.253906 35.285156 26.148438 35.285156 21.871094 Z M 35.285156 21.871094 "/>
<path style=" stroke:none;fill-rule:nonzero;fill:rgb(1.568627%,1.568627%,1.568627%);fill-opacity:1;" d="M 35.285156 21.957031 C 35.285156 26.148438 35.285156 30.253906 35.28125 34.363281 C 35.28125 36.535156 34.082031 37.753906 31.894531 37.753906 C 23.425781 37.765625 14.957031 37.761719 6.488281 37.753906 C 4.25 37.753906 3.054688 36.546875 3.054688 34.320312 C 3.054688 24.222656 3.054688 14.121094 3.054688 4.023438 C 3.054688 1.789062 4.242188 0.585938 6.480469 0.582031 C 13.148438 0.574219 19.816406 0.585938 26.484375 0.574219 C 27.46875 0.570312 28.269531 0.871094 28.964844 1.589844 C 30.734375 3.402344 32.53125 5.183594 34.335938 6.960938 C 34.996094 7.613281 35.292969 8.367188 35.289062 9.296875 C 35.273438 13.488281 35.285156 17.679688 35.285156 21.957031 M 13.257812 34.628906 C 19.519531 34.628906 25.777344 34.628906 32.011719 34.628906 C 32.011719 26.425781 32.011719 18.339844 32.011719 10.195312 C 31.03125 10.195312 30.105469 10.199219 29.183594 10.195312 C 26.761719 10.183594 25.550781 8.980469 25.542969 6.574219 C 25.542969 5.628906 25.542969 4.6875 25.542969 3.757812 C 19.0625 3.757812 12.691406 3.757812 6.308594 3.757812 C 6.308594 14.058594 6.308594 24.316406 6.308594 34.628906 C 8.597656 34.628906 10.84375 34.628906 13.257812 34.628906 Z M 13.257812 34.628906 "/>
<path style=" stroke:none;fill-rule:nonzero;fill:rgb(99.215686%,99.215686%,99.215686%);fill-opacity:1;" d="M 13.171875 34.628906 C 10.84375 34.628906 8.597656 34.628906 6.308594 34.628906 C 6.308594 24.316406 6.308594 14.058594 6.308594 3.757812 C 12.691406 3.757812 19.0625 3.757812 25.542969 3.757812 C 25.542969 4.6875 25.542969 5.628906 25.542969 6.574219 C 25.550781 8.980469 26.761719 10.183594 29.183594 10.195312 C 30.105469 10.199219 31.03125 10.195312 32.011719 10.195312 C 32.011719 18.339844 32.011719 26.425781 32.011719 34.628906 C 25.777344 34.628906 19.519531 34.628906 13.171875 34.628906 M 16.921875 15.023438 C 18.40625 14.511719 18.664062 13.320312 17.5 12.300781 C 16.554688 11.46875 15.441406 11.089844 14.175781 11.113281 C 12 11.148438 10.140625 12.578125 9.523438 14.714844 C 8.925781 16.792969 9.785156 19.058594 11.609375 20.234375 C 13.378906 21.375 15.828125 21.226562 17.425781 19.878906 C 18.269531 19.164062 18.4375 18.304688 17.863281 17.601562 C 17.324219 16.941406 16.464844 16.9375 15.617188 17.589844 C 14.683594 18.308594 13.558594 18.253906 12.8125 17.453125 C 12.082031 16.675781 12.070312 15.476562 12.78125 14.699219 C 13.527344 13.878906 14.648438 13.820312 15.601562 14.484375 C 15.953125 14.730469 16.390625 14.851562 16.921875 15.023438 M 28.914062 12.953125 C 29.070312 12.089844 28.742188 11.417969 28.058594 11.175781 C 27.300781 10.910156 26.542969 11.238281 26.195312 12.042969 C 25.691406 13.210938 25.226562 14.394531 24.675781 15.738281 C 24.144531 14.460938 23.6875 13.332031 23.207031 12.214844 C 22.785156 11.230469 22.035156 10.859375 21.210938 11.191406 C 20.40625 11.519531 20.128906 12.34375 20.519531 13.3125 C 21.390625 15.464844 22.28125 17.609375 23.152344 19.761719 C 23.433594 20.457031 23.804688 21.003906 24.65625 21.003906 C 25.5 21 25.882812 20.464844 26.164062 19.769531 C 27.0625 17.535156 27.976562 15.308594 28.914062 12.953125 M 18.324219 23.394531 C 17.402344 23.746094 17.0625 24.253906 17.1875 25.085938 C 17.304688 25.824219 17.867188 26.304688 18.75 26.3125 C 21.613281 26.328125 24.476562 26.328125 27.339844 26.3125 C 28.347656 26.308594 29.035156 25.660156 29.019531 24.8125 C 29 23.957031 28.316406 23.347656 27.300781 23.34375 C 24.355469 23.335938 21.40625 23.347656 18.324219 23.394531 M 22.378906 31.503906 C 24.007812 31.503906 25.640625 31.515625 27.269531 31.5 C 28.34375 31.492188 29.046875 30.867188 29.019531 29.992188 C 28.988281 29.128906 28.3125 28.546875 27.277344 28.542969 C 24.464844 28.53125 21.652344 28.53125 18.839844 28.542969 C 17.792969 28.546875 17.164062 29.128906 17.160156 30.023438 C 17.15625 30.917969 17.78125 31.484375 18.835938 31.5 C 19.957031 31.519531 21.085938 31.503906 22.378906 31.503906 M 14.574219 24.382812 C 14.347656 23.667969 13.808594 23.371094 13.109375 23.34375 C 12.351562 23.316406 11.589844 23.308594 10.835938 23.347656 C 9.949219 23.394531 9.3125 24.054688 9.320312 24.84375 C 9.328125 25.640625 9.960938 26.269531 10.863281 26.308594 C 11.589844 26.34375 12.324219 26.339844 13.050781 26.3125 C 14.179688 26.269531 14.675781 25.679688 14.574219 24.382812 M 11.917969 31.507812 C 12.363281 31.503906 12.816406 31.527344 13.261719 31.488281 C 14.070312 31.417969 14.632812 30.84375 14.664062 30.089844 C 14.699219 29.351562 14.160156 28.640625 13.375 28.578125 C 12.457031 28.503906 11.523438 28.507812 10.605469 28.582031 C 9.863281 28.640625 9.324219 29.328125 9.320312 30.019531 C 9.316406 30.757812 9.878906 31.386719 10.667969 31.480469 C 11.027344 31.519531 11.394531 31.5 11.917969 31.507812 Z M 11.917969 31.507812 "/>
<path style=" stroke:none;fill-rule:nonzero;fill:rgb(1.176471%,1.176471%,1.176471%);fill-opacity:1;" d="M 16.855469 15.027344 C 16.390625 14.851562 15.953125 14.730469 15.601562 14.484375 C 14.648438 13.820312 13.527344 13.878906 12.78125 14.699219 C 12.070312 15.476562 12.082031 16.675781 12.8125 17.453125 C 13.558594 18.253906 14.683594 18.308594 15.617188 17.589844 C 16.464844 16.9375 17.324219 16.941406 17.863281 17.601562 C 18.4375 18.304688 18.269531 19.164062 17.425781 19.878906 C 15.828125 21.226562 13.378906 21.375 11.609375 20.234375 C 9.785156 19.058594 8.925781 16.792969 9.523438 14.714844 C 10.140625 12.578125 12 11.148438 14.175781 11.113281 C 15.441406 11.089844 16.554688 11.46875 17.5 12.300781 C 18.664062 13.320312 18.40625 14.511719 16.855469 15.027344 Z M 16.855469 15.027344 "/>
<path style=" stroke:none;fill-rule:nonzero;fill:rgb(1.176471%,1.176471%,1.176471%);fill-opacity:1;" d="M 28.898438 13.015625 C 27.976562 15.308594 27.0625 17.535156 26.164062 19.769531 C 25.882812 20.464844 25.5 21 24.65625 21.003906 C 23.804688 21.003906 23.433594 20.457031 23.152344 19.761719 C 22.28125 17.609375 21.390625 15.464844 20.519531 13.3125 C 20.128906 12.34375 20.40625 11.519531 21.210938 11.191406 C 22.035156 10.859375 22.785156 11.230469 23.207031 12.214844 C 23.6875 13.332031 24.144531 14.460938 24.675781 15.738281 C 25.226562 14.394531 25.691406 13.210938 26.195312 12.042969 C 26.542969 11.238281 27.300781 10.910156 28.058594 11.175781 C 28.742188 11.417969 29.070312 12.089844 28.898438 13.015625 Z M 28.898438 13.015625 "/>
<path style=" stroke:none;fill-rule:nonzero;fill:rgb(3.137255%,3.137255%,3.137255%);fill-opacity:1;" d="M 18.390625 23.375 C 21.40625 23.347656 24.355469 23.335938 27.300781 23.34375 C 28.316406 23.347656 29 23.957031 29.019531 24.8125 C 29.035156 25.660156 28.347656 26.308594 27.339844 26.3125 C 24.476562 26.328125 21.613281 26.328125 18.75 26.3125 C 17.867188 26.304688 17.304688 25.824219 17.1875 25.085938 C 17.0625 24.253906 17.402344 23.746094 18.390625 23.375 Z M 18.390625 23.375 "/>
<path style=" stroke:none;fill-rule:nonzero;fill:rgb(2.745098%,2.745098%,2.745098%);fill-opacity:1;" d="M 22.292969 31.503906 C 21.085938 31.503906 19.957031 31.519531 18.835938 31.5 C 17.78125 31.484375 17.15625 30.917969 17.160156 30.023438 C 17.164062 29.128906 17.792969 28.546875 18.839844 28.542969 C 21.652344 28.53125 24.464844 28.53125 27.277344 28.542969 C 28.3125 28.546875 28.988281 29.128906 29.019531 29.992188 C 29.046875 30.867188 28.34375 31.492188 27.269531 31.5 C 25.640625 31.515625 24.007812 31.503906 22.292969 31.503906 Z M 22.292969 31.503906 "/>
<path style=" stroke:none;fill-rule:nonzero;fill:rgb(3.529412%,3.529412%,3.529412%);fill-opacity:1;" d="M 14.597656 24.445312 C 14.675781 25.679688 14.179688 26.269531 13.050781 26.3125 C 12.324219 26.339844 11.589844 26.34375 10.863281 26.308594 C 9.960938 26.269531 9.328125 25.640625 9.320312 24.84375 C 9.3125 24.054688 9.949219 23.394531 10.835938 23.347656 C 11.589844 23.308594 12.351562 23.316406 13.109375 23.34375 C 13.808594 23.371094 14.347656 23.667969 14.597656 24.445312 Z M 14.597656 24.445312 "/>
<path style=" stroke:none;fill-rule:nonzero;fill:rgb(3.137255%,3.137255%,3.137255%);fill-opacity:1;" d="M 11.839844 31.507812 C 11.394531 31.5 11.027344 31.519531 10.667969 31.480469 C 9.878906 31.386719 9.316406 30.757812 9.320312 30.019531 C 9.324219 29.328125 9.863281 28.640625 10.605469 28.582031 C 11.523438 28.507812 12.457031 28.503906 13.375 28.578125 C 14.160156 28.640625 14.699219 29.351562 14.664062 30.089844 C 14.632812 30.84375 14.070312 31.417969 13.261719 31.488281 C 12.816406 31.527344 12.363281 31.503906 11.839844 31.507812 Z M 11.839844 31.507812 "/>
</g>
</svg>
